<svg width="537" height="113" viewBox="0 0 537 113" fill="none" xmlns="http://www.w3.org/2000/svg">
<path d="M226.113 9.85352C229.53 12.6324 232.72 15.6407 235.867 18.7207C232.754 21.9203 229.507 24.8614 226.058 27.6987C225.371 28.2697 225.371 28.2697 224.671 28.8522C222.243 30.8625 219.787 32.8168 217.246 34.6816C214.836 33.527 212.645 32.2376 210.429 30.7468C202.255 25.649 194.216 24.7725 184.77 26.3687C177.298 28.2902 170.87 33.6006 166.703 40.002C162.482 48.7059 161.535 58.0425 164.597 67.2686C168.771 77.2596 174.419 83.1587 184.48 87.3509C187.649 88.3283 190.79 88.2773 194.081 88.2173C195.137 88.2048 195.137 88.2048 196.215 88.192C202.665 88.0258 207.673 87.3266 212.702 83.0632C216.007 79.1636 216.007 79.1636 218.133 74.584C208.476 74.2914 198.82 73.9988 188.871 73.6973C188.871 66.6745 188.871 59.6516 188.871 52.416C207.599 52.416 226.326 52.416 245.621 52.416C245.621 69.7574 244.167 84.3165 232.32 97.6387C221.526 108.128 207.84 112.358 193.028 112.214C192.055 112.207 191.083 112.201 190.081 112.194C182.642 112.043 176.267 111.224 169.363 108.279C168.527 107.924 167.69 107.568 166.828 107.202C153.939 100.922 145.062 90.0923 139.946 76.8735C135.656 63.4346 135.105 46.8357 140.988 33.7949C141.309 33.0222 141.631 32.2495 141.962 31.4534C147.146 19.9952 155.633 11.6537 166.703 6.02955C167.292 5.72993 167.882 5.43031 168.489 5.12161C185.752 -3.25953 210.45 -1.12676 226.113 9.85352Z" fill="#5031C9"/>
<path d="M258.035 1.87305C280.567 1.87305 303.098 1.87305 326.312 1.87305C326.312 9.18848 326.312 16.5039 326.312 24.041C311.974 24.041 297.636 24.041 282.863 24.041C282.863 31.0638 282.863 38.0866 282.863 45.3223C295.738 45.3223 308.614 45.3223 321.879 45.3223C321.879 52.9303 321.879 60.5384 321.879 68.377C309.004 68.377 296.129 68.377 282.863 68.377C282.863 75.1071 282.863 81.8373 282.863 88.7715C297.787 88.7715 312.71 88.7715 328.086 88.7715C328.086 96.0869 328.086 103.402 328.086 110.939C304.969 110.939 281.852 110.939 258.035 110.939C258.035 74.9475 258.035 38.9556 258.035 1.87305Z" fill="#443ED1"/>
<path d="M338.727 1.87305C347.798 1.87305 356.869 1.87305 366.215 1.87305C368.154 7.60994 368.154 7.60994 370.132 13.4627C370.961 15.9116 371.789 18.3605 372.618 20.8093C373.928 24.6809 375.237 28.5525 376.546 32.4246C377.603 35.5526 378.661 38.6803 379.719 41.8077C380.119 42.9902 380.519 44.1729 380.919 45.3556C383.002 51.5261 385.11 57.6876 387.279 63.8286C387.82 65.3623 387.82 65.3623 388.372 66.9269C389.049 69.1637 389.049 69.1637 390.156 70.1504C390.472 69.2162 390.788 68.2821 391.113 67.3196C398.524 45.4101 406.157 23.5965 414.098 1.87305C422.876 1.87305 431.655 1.87305 440.699 1.87305C435.879 16.4918 430.853 31.0116 425.625 45.4885C424.148 49.588 422.673 53.6881 421.198 57.7883C420.829 58.8135 420.46 59.8388 420.08 60.8951C417.547 67.9371 415.036 74.9866 412.539 82.0414C412.208 82.9751 411.878 83.9088 411.537 84.8708C410.269 88.4524 409.001 92.034 407.738 95.6174C406.884 98.0423 406.026 100.466 405.168 102.89C404.79 103.968 404.79 103.968 404.404 105.069C402.671 109.952 402.671 109.952 401.684 110.939C399.846 111.017 398.005 111.034 396.166 111.026C395.049 111.023 393.931 111.02 392.78 111.017C391.591 111.01 390.403 111.002 389.214 110.995C388.022 110.99 386.83 110.986 385.638 110.983C382.71 110.972 379.783 110.958 376.855 110.939C373.149 101.177 369.602 91.3694 366.159 81.5115C365.66 80.0848 365.16 78.6582 364.66 77.2316C363.625 74.2773 362.59 71.3227 361.557 68.3679C359.327 61.9964 357.091 55.6272 354.854 49.2584C354.137 47.2179 353.421 45.1773 352.705 43.1366C350.35 36.427 347.981 29.7225 345.588 23.0261C345.358 22.3807 345.128 21.7352 344.89 21.0702C343.8 18.0143 342.706 14.9594 341.608 11.9062C341.037 10.3089 341.037 10.3089 340.455 8.67931C340.12 7.7458 339.784 6.8123 339.439 5.85051C338.727 3.64648 338.727 3.64648 338.727 1.87305Z" fill="#1967E1"/>
<path d="M95.7656 1.87305C104.544 1.87305 113.323 1.87305 122.367 1.87305C122.367 37.865 122.367 73.8569 122.367 110.939C113.589 110.939 104.81 110.939 95.7656 110.939C95.7656 74.9475 95.7656 38.9556 95.7656 1.87305Z" fill="#481EB4"/>
<path d="M18.6211 4.5332C33.6288 -2.69175 54.9908 -0.784395 68.2773 8.9668C73.9064 13.3313 77.4778 19.1071 79.8047 25.8145L80.6914 34.6816H53.2031L51.4297 28.4746C49.4123 25.5493 46.8396 24.8424 43.4492 24.041C38.1053 23.537 33.8527 23.6022 29.2617 26.7012C27.1953 29.8008 26.9672 31.0342 27.4883 34.6816C31.0471 38.2475 35.1416 39.6552 39.792 41.2764C40.534 41.543 41.2765 41.8102 42.041 42.085C46.1218 43.5411 50.2228 44.9277 54.3428 46.2686C65.4318 49.8814 75.8927 54.8197 81.5781 65.7168C84.7031 75.1834 84.5612 84.5418 80.2275 93.5723C74.504 103.596 64.9546 108.652 54.0898 111.826C49.9086 112.385 45.8327 112.411 41.6201 112.325C40.0559 112.34 40.0557 112.34 38.46 112.354C27.6023 112.264 17.9196 109.46 9.75391 102.072C3.26463 94.7734 2.15631e-05 86.9748 0 77.2441H26.6016L30.1484 85.2246C34.0197 89.0959 37.0999 89.9146 42.5068 89.9355C47.6718 89.8404 51.0204 89.0357 54.8662 85.4463C56.3249 82.5288 56.2584 80.4619 55.8633 77.2441C53.6458 73.9404 51.7936 72.2075 48.1045 70.7598C47.1786 70.3963 46.2527 70.0327 45.2988 69.6582C42.4059 68.6077 39.4849 67.6542 36.5566 66.707C35.6328 66.4068 34.7086 66.1072 33.7568 65.7979C31.9093 65.203 30.0582 64.6187 28.2031 64.0479C20.1322 61.472 12.7497 58.0169 7.09375 51.5293C6.47203 50.871 5.85052 50.2124 5.20996 49.5342C0.0974292 42.0358 -0.204056 33.1979 1.27148 24.4111C3.83765 15.3106 10.6593 9.13282 18.6211 4.5332Z" fill="#5027BC"/>
<path d="M474.481 1.78613C475.424 1.78801 475.424 1.78812 476.386 1.79004C478.401 1.79502 480.416 1.80612 482.431 1.81738C483.794 1.82183 485.157 1.82645 486.52 1.83008C489.867 1.83987 493.215 1.85486 496.562 1.87305C499.574 8.93609 502.353 16.0472 504.941 23.2754C505.306 24.2852 505.67 25.2955 506.045 26.3359C507.025 29.054 508.003 31.773 508.98 34.4922C510.839 39.6615 512.705 44.8283 514.57 49.9951C514.78 50.5752 514.989 51.1552 515.205 51.7529C520.326 65.9398 525.538 80.0932 530.77 94.2393C531.398 95.9425 532.026 97.6463 532.654 99.3496C532.94 100.118 533.225 100.888 533.52 101.68C533.91 102.738 533.91 102.738 534.308 103.817C534.533 104.426 534.759 105.036 534.991 105.663C535.578 107.392 536.022 109.168 536.465 110.939H508.977C507.806 107.483 506.636 104.026 505.43 100.465C505.059 99.3782 504.689 98.2915 504.308 97.1719C504.02 96.3144 503.731 95.4567 503.435 94.5732C502.989 93.2569 502.989 93.2568 502.534 91.9141C501.883 89.6585 501.883 89.6582 501.883 86.998H463.754L461.094 96.752C460.339 99.1648 459.575 101.562 458.767 103.956C458.575 104.539 458.382 105.122 458.185 105.723C456.773 109.94 456.773 109.94 455.773 110.939C453.806 111.017 451.837 111.035 449.868 111.026C448.984 111.024 448.984 111.024 448.082 111.022C446.194 111.017 444.305 111.006 442.417 110.995C441.14 110.991 439.862 110.986 438.585 110.982C435.447 110.973 432.309 110.958 429.172 110.939C431.396 103.087 434.104 95.4105 436.82 87.7188C437.188 86.6751 437.188 86.675 437.562 85.6104C442.624 71.2362 447.804 56.9052 453.003 42.5801C455.798 34.8772 458.592 27.1735 461.333 19.4512C461.546 18.8514 461.759 18.2517 461.979 17.6338C462.935 14.9389 463.888 12.2426 464.837 9.54492C465.156 8.64318 465.476 7.74156 465.805 6.8125C466.076 6.04236 466.346 5.27199 466.625 4.47852C467.702 1.73736 467.761 1.88897 470.893 1.77246C472.089 1.7726 473.285 1.77725 474.481 1.78613ZM479.097 38.8105C478.76 39.894 478.434 40.9455 478.107 41.9971C475.741 49.5626 473.591 57.1223 471.734 64.8301H493.016C493.016 62.0221 492.365 59.7983 491.528 57.1367C491.309 56.4515 491.095 55.7862 490.882 55.1211C490.206 52.9833 489.53 50.8459 488.849 48.71C488.374 47.2233 487.9 45.7356 487.429 44.248C486.044 39.8755 484.656 35.5043 483.262 31.1348H481.488C480.688 33.6925 479.891 36.2512 479.097 38.8105Z" fill="#2C7DE4"/>
<path d="M461.98 17.834C462.566 18.1266 463.151 18.4192 463.754 18.7207C463.312 22.0325 462.978 23.8746 461.094 26.7012C460.509 26.7012 459.923 26.7012 459.32 26.7012C460.198 23.775 461.076 20.8488 461.98 17.834Z" fill="#4978DF"/>
</svg>
