<svg width="413" height="81" viewBox="0 0 413 81" fill="none" xmlns="http://www.w3.org/2000/svg">
<path d="M250.172 16.1497C251.958 17.602 253.625 19.1742 255.269 20.7839C253.642 22.4561 251.945 23.9931 250.143 25.476C249.784 25.7744 249.784 25.7744 249.418 26.0788C248.149 27.1295 246.866 28.1508 245.538 29.1254C244.278 28.522 243.133 27.8481 241.975 27.069C237.703 24.4048 233.501 23.9467 228.565 24.7809C224.66 25.7851 221.3 28.5604 219.123 31.9059C216.917 36.4548 216.422 41.3344 218.022 46.1561C220.203 51.3776 223.155 54.4606 228.413 56.6516C230.069 57.1624 231.711 57.1358 233.431 57.1044C233.983 57.0978 233.983 57.0978 234.546 57.0911C237.917 57.0043 240.534 56.6389 243.163 54.4108C244.89 52.3727 244.89 52.3727 246.001 49.9793C240.954 49.8264 235.908 49.6735 230.708 49.5159C230.708 45.8456 230.708 42.1753 230.708 38.3938C240.496 38.3938 250.283 38.3938 260.367 38.3938C260.367 47.4568 259.607 55.0658 253.416 62.0282C247.775 67.5101 240.622 69.7209 232.88 69.6457C232.372 69.6422 231.864 69.6387 231.341 69.635C227.453 69.5562 224.121 69.1281 220.513 67.5893C220.076 67.4035 219.638 67.2177 219.188 67.0263C212.452 63.744 207.813 58.0843 205.139 51.1759C202.897 44.1524 202.609 35.4774 205.684 28.662C205.851 28.2582 206.019 27.8544 206.192 27.4383C208.902 21.4499 213.337 17.0905 219.123 14.1512C219.431 13.9946 219.739 13.838 220.056 13.6767C229.078 9.29649 241.986 10.4111 250.172 16.1497Z" fill="white"/>
<path d="M266.855 11.9789C278.63 11.9789 290.406 11.9789 302.538 11.9789C302.538 15.8021 302.538 19.6253 302.538 23.5644C295.045 23.5644 287.551 23.5644 279.831 23.5644C279.831 27.2347 279.831 30.905 279.831 34.6865C286.559 34.6865 293.288 34.6865 300.221 34.6865C300.221 38.6626 300.221 42.6387 300.221 46.7354C293.492 46.7354 286.763 46.7354 279.831 46.7354C279.831 50.2527 279.831 53.7701 279.831 57.394C287.63 57.394 295.429 57.394 303.465 57.394C303.465 61.2172 303.465 65.0404 303.465 68.9795C291.384 68.9795 279.302 68.9795 266.855 68.9795C266.855 50.1693 266.855 31.3591 266.855 11.9789Z" fill="white"/>
<path d="M309.026 11.9789C313.767 11.9789 318.507 11.9789 323.392 11.9789C324.405 14.9771 324.405 14.9771 325.439 18.0359C325.872 19.3158 326.305 20.5956 326.738 21.8754C327.423 23.8988 328.107 25.9222 328.791 27.9458C329.343 29.5806 329.896 31.2152 330.45 32.8497C330.659 33.4677 330.868 34.0858 331.076 34.7039C332.165 37.9287 333.267 41.1489 334.4 44.3583C334.683 45.1598 334.683 45.1598 334.971 45.9775C335.326 47.1466 335.326 47.1466 335.904 47.6622C336.069 47.174 336.234 46.6858 336.404 46.1828C340.277 34.7324 344.267 23.3321 348.416 11.9789C353.004 11.9789 357.592 11.9789 362.319 11.9789C359.8 19.619 357.173 27.2074 354.441 34.7733C353.669 36.9158 352.898 39.0587 352.127 41.2015C351.935 41.7373 351.742 42.2731 351.543 42.8252C350.219 46.5055 348.907 50.1897 347.602 53.8767C347.429 54.3647 347.256 54.8527 347.078 55.3554C346.415 57.2272 345.753 59.0991 345.093 60.9719C344.646 62.2391 344.198 63.5059 343.75 64.7725C343.552 65.3362 343.552 65.3362 343.35 65.9112C342.445 68.4635 342.445 68.4635 341.929 68.9795C340.968 69.0201 340.006 69.0291 339.045 69.0248C338.461 69.0233 337.877 69.0218 337.275 69.0202C336.654 69.0164 336.033 69.0124 335.412 69.0085C334.789 69.0061 334.166 69.004 333.543 69.0021C332.013 68.9966 330.483 68.989 328.953 68.9795C327.016 63.8776 325.162 58.7517 323.363 53.5998C323.102 52.8541 322.841 52.1086 322.579 51.363C322.038 49.819 321.498 48.2749 320.957 46.7306C319.792 43.4008 318.624 40.072 317.454 36.7436C317.08 35.6772 316.706 34.6107 316.332 33.5442C315.101 30.0376 313.863 26.5336 312.612 23.034C312.492 22.6967 312.371 22.3593 312.247 22.0118C311.677 20.4147 311.106 18.8181 310.532 17.2225C310.233 16.3877 310.233 16.3877 309.929 15.536C309.754 15.0481 309.579 14.5603 309.398 14.0576C309.026 12.9057 309.026 12.9057 309.026 11.9789Z" fill="white"/>
<path d="M182.049 11.9789C186.637 11.9789 191.225 11.9789 195.952 11.9789C195.952 30.7891 195.952 49.5993 195.952 68.9795C191.364 68.9795 186.776 68.9795 182.049 68.9795C182.049 50.1693 182.049 31.3591 182.049 11.9789Z" fill="white"/>
<path d="M141.731 13.3694C149.575 9.59349 160.74 10.5896 167.684 15.6858C170.625 17.9668 172.492 20.9861 173.708 24.4915C173.937 26.785 173.937 26.7852 174.171 29.1253H159.805C159.499 28.0548 159.193 26.984 158.878 25.8811C157.824 24.3526 156.479 23.9835 154.707 23.5647C151.914 23.3014 149.692 23.335 147.293 24.9544C146.213 26.5743 146.094 27.2191 146.366 29.1253C148.226 30.9888 150.366 31.7253 152.796 32.5725C153.184 32.7119 153.572 32.8508 153.972 32.9944C156.104 33.7554 158.247 34.4802 160.4 35.1809C166.196 37.0691 171.663 39.6499 174.635 45.345C176.268 50.2924 176.193 55.1832 173.929 59.9026C170.937 65.1413 165.947 67.7839 160.269 69.4427C158.083 69.7347 155.953 69.7482 153.752 69.7034C152.934 69.711 152.934 69.7113 152.1 69.719C146.425 69.6719 141.365 68.2058 137.098 64.345C133.706 60.5305 132 56.4549 132 51.3694H145.902C146.514 52.7457 147.126 54.1223 147.756 55.5403C149.779 57.5635 151.389 57.9913 154.215 58.0022C156.914 57.9525 158.664 57.5322 160.674 55.6565C161.436 54.1317 161.402 53.0511 161.195 51.3694C160.036 49.6429 159.069 48.7373 157.141 47.9807C156.657 47.7908 156.172 47.6013 155.674 47.4055C154.162 46.8566 152.636 46.3575 151.105 45.8626C150.623 45.7057 150.139 45.5487 149.642 45.387C148.676 45.0761 147.709 44.7713 146.739 44.4729C142.521 43.1267 138.663 41.3206 135.707 37.93C135.382 37.5861 135.057 37.2423 134.723 36.888C132.051 32.9692 131.893 28.3502 132.664 23.7581C134.005 19.0019 137.571 15.7733 141.731 13.3694Z" fill="white"/>
<path d="M379.974 11.9332C380.467 11.9341 380.467 11.9341 380.969 11.9351C382.022 11.9377 383.076 11.9439 384.129 11.9498C384.841 11.9521 385.553 11.9547 386.265 11.9566C388.015 11.9617 389.765 11.9696 391.514 11.9791C393.088 15.6703 394.541 19.387 395.893 23.1646C396.084 23.6922 396.274 24.2196 396.47 24.7632C396.983 26.1837 397.493 27.6049 398.004 29.0259C398.975 31.7276 399.951 34.4281 400.925 37.1285C401.035 37.4317 401.145 37.735 401.257 38.0474C403.933 45.4617 406.657 52.8585 409.391 60.2515C409.72 61.1417 410.048 62.0322 410.377 62.9224C410.526 63.3242 410.675 63.7262 410.829 64.1402C411.033 64.6932 411.033 64.6932 411.241 65.2574C411.359 65.5755 411.477 65.8935 411.598 66.2212C411.905 67.1249 412.136 68.0533 412.368 68.9791H398.003C397.391 67.1727 396.778 65.3665 396.148 63.5054C395.955 62.9374 395.762 62.3689 395.562 61.7837C395.412 61.3358 395.261 60.8879 395.106 60.4263C394.873 59.7385 394.873 59.7381 394.635 59.0367C394.295 57.8579 394.295 57.8574 394.295 56.4673H374.368C373.909 58.1495 373.45 59.8319 372.977 61.565C372.583 62.8258 372.184 64.0787 371.761 65.3296C371.661 65.6343 371.56 65.9396 371.457 66.2535C370.719 68.457 370.719 68.457 370.197 68.9791C369.169 69.0198 368.14 69.0293 367.111 69.025C366.649 69.024 366.649 69.024 366.177 69.023C365.191 69.0204 364.203 69.0142 363.216 69.0084C362.549 69.006 361.881 69.0044 361.214 69.0025C359.574 68.9974 357.934 68.9886 356.295 68.9791C357.457 64.8753 358.872 60.8631 360.292 56.8433C360.484 56.2982 360.483 56.2981 360.679 55.7418C363.325 48.2295 366.033 40.7401 368.75 33.2535C370.21 29.2278 371.67 25.2014 373.102 21.1656C373.214 20.8521 373.325 20.5384 373.44 20.2154C373.94 18.8072 374.438 17.3985 374.934 15.9888C375.101 15.5175 375.267 15.0457 375.439 14.5601C375.581 14.1576 375.723 13.7551 375.869 13.3404C376.432 11.9078 376.463 11.9872 378.099 11.9263C378.724 11.9264 379.349 11.9285 379.974 11.9332ZM382.386 31.2837C382.211 31.8498 382.04 32.3994 381.87 32.9488C380.633 36.9026 379.509 40.8542 378.539 44.8824H389.661C389.661 43.415 389.321 42.2518 388.883 40.8609C388.769 40.503 388.657 40.1555 388.546 39.8082C388.192 38.6909 387.839 37.5729 387.483 36.4566C387.235 35.6798 386.987 34.9028 386.741 34.1255C386.017 31.8404 385.292 29.5556 384.563 27.272H383.636C383.218 28.6087 382.802 29.9462 382.386 31.2837Z" fill="white"/>
<path d="M373.441 20.3204C373.747 20.4734 374.053 20.6263 374.368 20.7839C374.137 22.5147 373.962 23.4774 372.978 24.9546C372.672 24.9546 372.366 24.9546 372.051 24.9546C372.51 23.4254 372.968 21.8961 373.441 20.3204Z" fill="white"/>
<line x1="107.5" y1="2" x2="107.5" y2="78" stroke="white"/>
<path d="M41.2061 0C46.0606 0 50.0267 4.03763 50.0267 8.98698C50.0267 13.9363 46.0735 17.974 41.2061 17.974C36.3386 17.974 32.3854 13.9363 32.3854 8.98698C32.3854 4.03763 36.3515 0 41.2061 0Z" fill="white"/>
<path d="M9.09105 29.0318C9.0653 29.1881 9.05242 29.2923 9.05242 29.3575C9.05242 29.8263 9.30996 30.165 9.82503 30.3994C10.353 30.6208 11.1514 30.7381 12.2459 30.7381C13.0829 30.7381 13.7267 30.6469 14.2032 30.4645C14.6796 30.2822 14.9114 30.0217 14.9114 29.6961C14.9114 29.2012 13.9714 28.8104 12.1171 28.4978C11.8982 28.4588 11.7308 28.4327 11.6278 28.4197C11.5119 28.3936 11.3316 28.3676 11.0998 28.3285C8.13816 27.8336 6.23238 27.2996 5.38251 26.7265C4.97045 26.4399 4.6614 26.1143 4.4425 25.7366C4.23647 25.3589 4.13345 24.9291 4.13345 24.4472C4.13345 23.275 4.81593 22.3763 6.18088 21.7641C7.54583 21.152 9.54174 20.8394 12.1557 20.8394C14.7698 20.8394 16.6627 21.1259 17.9117 21.699C19.1608 22.2721 19.7789 23.1577 19.7789 24.356V24.4993H14.8728V24.4472C14.8728 24.0304 14.6281 23.7308 14.1259 23.5094C13.6237 23.301 12.9026 23.1838 11.9368 23.1838C11.19 23.1838 10.6105 23.2619 10.2242 23.4052C9.81216 23.5615 9.619 23.7699 9.619 24.0434C9.619 24.5383 10.6878 24.9682 12.8253 25.3068C13.2374 25.3719 13.5593 25.424 13.7911 25.4631C15.3106 25.7236 16.4051 25.945 17.049 26.1273C17.6928 26.3097 18.2465 26.5311 18.723 26.7786C19.238 27.0651 19.6501 27.4298 19.9334 27.8726C20.2167 28.3155 20.3583 28.7974 20.3583 29.3314C20.3583 30.5427 19.6115 31.4674 18.1306 32.1317C16.6498 32.7829 14.5122 33.1085 11.7308 33.1085C8.94941 33.1085 6.97924 32.7959 5.75594 32.1708C4.51976 31.5456 3.91454 30.5427 3.91454 29.1491V28.9667H9.09105V29.0318ZM22.5345 21.0217H36.5317V23.5876H27.7883V25.4891H35.8621V28.0289H27.7883V30.3343H36.8536V32.9392H22.5345V21.0217ZM39.0556 32.9262V21.0217H45.7L52.8209 29.0188V21.0217H57.8687V32.9262H50.9667L44.0775 24.903V32.9262H39.0427H39.0556ZM71.4409 28.1722L68.9299 23.848L66.2773 28.1722H71.4538H71.4409ZM58.1649 32.9262L66.303 21.0217H72.1363L79.901 32.9262H74.0549L72.8703 30.7771H64.7192L63.4573 32.9262H58.1649Z" fill="white"/>
<path d="M15.5553 74.9175L10.8552 70.4501L25.1486 45.3256C25.9212 43.958 24.9554 42.2388 23.3973 42.2388H0V35.9479H37.652L15.5553 74.9175Z" fill="white"/>
<path d="M66.4447 74.9175L71.1448 70.4501L56.8514 45.3256C56.0788 43.958 57.0446 42.2388 58.6027 42.2388H82V35.9479H44.348L66.4447 74.9175Z" fill="white"/>
<path d="M40.9485 42.5905L41 42.4993L62.2211 78.0304L56.581 81L42.9058 57.8032C42.0945 56.4356 40.1501 56.4356 39.3517 57.8032C34.7933 65.5919 25.7666 81 25.7666 81L20.2553 78.2388C20.2553 78.2388 39.8153 44.5441 40.9485 42.5905Z" fill="white"/>
</svg>
