<svg width="412" height="81" viewBox="0 0 412 81" fill="none" xmlns="http://www.w3.org/2000/svg">
<path d="M249.948 16.1353C251.732 17.5863 253.398 19.1571 255.041 20.7653C253.415 22.436 251.72 23.9717 249.919 25.4532C249.56 25.7514 249.56 25.7514 249.195 26.0555C247.927 27.1052 246.645 28.1256 245.318 29.0994C244.059 28.4965 242.915 27.8232 241.759 27.0448C237.49 24.383 233.292 23.9253 228.36 24.7587C224.459 25.7621 221.102 28.5349 218.927 31.8774C216.723 36.4222 216.228 41.2974 217.827 46.1148C220.006 51.3317 222.955 54.4119 228.209 56.6009C229.864 57.1113 231.504 57.0847 233.222 57.0533C233.774 57.0468 233.774 57.0468 234.336 57.0401C237.704 56.9533 240.319 56.5882 242.945 54.3621C244.671 52.3259 244.671 52.3259 245.781 49.9346C240.739 49.7818 235.697 49.629 230.502 49.4716C230.502 45.8046 230.502 42.1376 230.502 38.3595C240.28 38.3595 250.059 38.3595 260.134 38.3595C260.134 47.4144 259.375 55.0165 253.189 61.9727C247.553 67.4497 240.406 69.6585 232.672 69.5834C232.164 69.5799 231.657 69.5764 231.134 69.5727C227.249 69.494 223.921 69.0662 220.316 67.5288C219.879 67.3432 219.442 67.1576 218.992 66.9663C212.262 63.687 207.627 58.0324 204.955 51.1301C202.715 44.1129 202.427 35.4457 205.499 28.6364C205.667 28.2329 205.835 27.8295 206.008 27.4138C208.715 21.4308 213.146 17.0752 218.927 14.1386C219.234 13.9821 219.542 13.8257 219.859 13.6645C228.873 9.28822 241.769 10.4019 249.948 16.1353Z" fill="#5031C9"/>
<path d="M266.616 11.9682C278.381 11.9682 290.146 11.9682 302.268 11.9682C302.268 15.788 302.268 19.6078 302.268 23.5433C294.781 23.5433 287.294 23.5433 279.58 23.5433C279.58 27.2103 279.58 30.8773 279.58 34.6555C286.303 34.6555 293.026 34.6555 299.953 34.6555C299.953 38.628 299.953 42.6006 299.953 46.6936C293.23 46.6936 286.507 46.6936 279.58 46.6936C279.58 50.2078 279.58 53.722 279.58 57.3427C287.373 57.3427 295.165 57.3427 303.194 57.3427C303.194 61.1625 303.194 64.9823 303.194 68.9178C291.123 68.9178 279.053 68.9178 266.616 68.9178C266.616 50.1244 266.616 31.3311 266.616 11.9682Z" fill="#443ED1"/>
<path d="M308.75 11.9682C313.486 11.9682 318.223 11.9682 323.103 11.9682C324.115 14.9638 324.115 14.9638 325.148 18.0198C325.581 19.2986 326.013 20.5773 326.446 21.8559C327.13 23.8775 327.814 25.899 328.497 27.9209C329.049 29.5542 329.601 31.1873 330.154 32.8203C330.363 33.4378 330.572 34.0553 330.78 34.6729C331.868 37.8948 332.969 41.1121 334.102 44.3186C334.384 45.1194 334.384 45.1194 334.672 45.9364C335.026 47.1044 335.026 47.1044 335.604 47.6196C335.769 47.1318 335.934 46.644 336.103 46.1415C339.973 34.7013 343.959 23.3112 348.105 11.9682C352.689 11.9682 357.273 11.9682 361.995 11.9682C359.478 19.6015 356.854 27.183 354.124 34.7423C353.353 36.8828 352.583 39.0237 351.813 41.1647C351.62 41.7 351.427 42.2353 351.229 42.7869C349.906 46.4639 348.595 50.1448 347.291 53.8286C347.119 54.3161 346.946 54.8036 346.768 55.3059C346.106 57.1761 345.444 59.0462 344.784 60.9173C344.338 62.1835 343.89 63.4491 343.442 64.7146C343.245 65.2777 343.245 65.2777 343.043 65.8523C342.139 68.4022 342.139 68.4022 341.623 68.9178C340.663 68.9584 339.702 68.9673 338.742 68.963C338.158 68.9615 337.575 68.96 336.974 68.9585C336.353 68.9546 335.733 68.9507 335.112 68.9467C334.489 68.9444 333.867 68.9423 333.245 68.9404C331.716 68.9349 330.187 68.9273 328.659 68.9178C326.724 63.8205 324.871 58.6992 323.074 53.5518C322.813 52.8069 322.552 52.062 322.291 51.3171C321.75 49.7744 321.21 48.2317 320.67 46.6888C319.506 43.362 318.339 40.0362 317.171 36.7107C316.796 35.6453 316.423 34.5798 316.049 33.5142C314.819 30.0108 313.582 26.5099 312.332 23.0134C312.212 22.6764 312.092 22.3394 311.968 21.9921C311.398 20.3965 310.828 18.8013 310.254 17.2071C309.956 16.3731 309.956 16.3731 309.652 15.5222C309.477 15.0347 309.302 14.5473 309.122 14.0451C308.75 12.8942 308.75 12.8942 308.75 11.9682Z" fill="#1967E1"/>
<path d="M181.886 11.9682C186.47 11.9682 191.054 11.9682 195.776 11.9682C195.776 30.7616 195.776 49.5549 195.776 68.9178C191.193 68.9178 186.609 68.9178 181.886 68.9178C181.886 50.1244 181.886 31.3311 181.886 11.9682Z" fill="#481EB4"/>
<path d="M141.604 13.3576C149.441 9.58508 160.595 10.5805 167.533 15.6721C170.472 17.951 172.337 20.9668 173.552 24.4689C173.782 26.7608 173.782 26.7616 174.015 29.0998H159.662C159.356 28.0303 159.051 26.9604 158.736 25.8586C157.683 24.3312 156.339 23.9616 154.569 23.5432C151.779 23.28 149.558 23.3147 147.161 24.9328C146.082 26.5511 145.963 27.1954 146.235 29.0998C148.093 30.9615 150.231 31.6967 152.659 32.5432C153.046 32.6824 153.434 32.8216 153.834 32.965C155.964 33.7253 158.105 34.4495 160.257 35.1496C166.047 37.0361 171.51 39.6149 174.478 45.3049C176.11 50.2478 176.036 55.1346 173.773 59.8498C170.785 65.0837 165.798 67.7238 160.125 69.381C157.942 69.6728 155.813 69.6855 153.614 69.6408C152.797 69.6484 152.797 69.6487 151.964 69.6564C146.294 69.6094 141.238 68.1446 136.974 64.2873C133.586 60.4763 131.882 56.4042 131.882 51.3234H145.772C146.383 52.6985 146.994 54.0737 147.624 55.4904C149.645 57.5119 151.254 57.9395 154.077 57.9504C156.774 57.9007 158.522 57.4807 160.53 55.6066C161.292 54.0832 161.257 53.0036 161.05 51.3234C159.893 49.5986 158.926 48.6936 157 47.9377C156.516 47.7479 156.033 47.558 155.535 47.3625C154.024 46.814 152.498 46.316 150.969 45.8215C150.487 45.6647 150.004 45.5084 149.508 45.3469C148.543 45.0363 147.577 44.7309 146.608 44.4328C142.394 43.0878 138.539 41.2842 135.586 37.8967C135.261 37.5529 134.936 37.2089 134.601 36.8547C131.932 32.9394 131.775 28.3245 132.546 23.7365C133.886 18.9849 137.447 15.7593 141.604 13.3576Z" fill="#5027BC"/>
<path d="M379.634 11.9225C380.127 11.9235 380.127 11.9235 380.63 11.9245C381.682 11.9271 382.734 11.9332 383.786 11.9391C384.497 11.9414 385.209 11.9441 385.921 11.946C387.669 11.9511 389.417 11.9589 391.165 11.9684C392.737 15.6563 394.188 19.3692 395.54 23.1432C395.73 23.6705 395.92 24.1986 396.116 24.7419C396.628 26.161 397.138 27.5809 397.648 29.0006C398.619 31.6998 399.594 34.3975 400.568 37.0954C400.677 37.3983 400.786 37.7013 400.899 38.0133C403.573 45.4211 406.294 52.8114 409.026 60.1979C409.354 61.0872 409.682 61.9765 410.01 62.8659C410.159 63.2673 410.309 63.669 410.463 64.0827C410.666 64.6351 410.666 64.6353 410.874 65.1989C410.991 65.5168 411.109 65.8352 411.23 66.1628C411.537 67.0656 411.768 67.9926 412 68.9176H397.647C397.036 67.1129 396.424 65.3083 395.795 63.4489C395.601 62.8815 395.408 62.3137 395.209 61.7292C395.058 61.2814 394.908 60.833 394.753 60.3717C394.52 59.6847 394.52 59.6842 394.283 58.9831C393.943 57.8056 393.943 57.8055 393.943 56.4167H374.034C373.575 58.0973 373.116 59.7778 372.644 61.5094C372.25 62.7692 371.851 64.0212 371.429 65.2711C371.329 65.5755 371.229 65.8804 371.126 66.194C370.389 68.3956 370.388 68.3962 369.867 68.9176C368.84 68.9583 367.811 68.9669 366.783 68.9626C366.321 68.9616 366.321 68.9616 365.85 68.9606C364.864 68.958 363.878 68.9528 362.892 68.9469C362.225 68.9446 361.558 68.942 360.891 68.9401C359.253 68.935 357.614 68.9271 355.976 68.9176C357.138 64.8175 358.551 60.8089 359.969 56.7926C360.161 56.2478 360.161 56.2478 360.357 55.692C363 48.1865 365.705 40.7033 368.42 33.2233C369.879 29.2013 371.338 25.1793 372.769 21.1471C372.88 20.834 372.991 20.5205 373.106 20.1979C373.606 18.7907 374.104 17.3829 374.599 15.9743C374.766 15.5035 374.932 15.0326 375.104 14.5475C375.246 14.1454 375.387 13.7431 375.533 13.3288C376.095 11.8974 376.126 11.9765 377.761 11.9157C378.386 11.9158 379.01 11.9179 379.634 11.9225ZM382.045 31.2555C381.869 31.8212 381.699 32.3706 381.529 32.9196C380.293 36.8698 379.17 40.817 378.201 44.8415H389.313C389.313 43.3757 388.974 42.2142 388.537 40.8249C388.422 40.4672 388.31 40.1193 388.199 39.7721C387.846 38.656 387.493 37.5396 387.137 36.4245C386.89 35.6485 386.642 34.8718 386.396 34.0954C385.673 31.8123 384.948 29.5292 384.22 27.2477H383.294C382.876 28.5832 382.459 29.9192 382.045 31.2555Z" fill="#2C7DE4"/>
<path d="M373.107 20.3023C373.413 20.4551 373.719 20.6079 374.033 20.7653C373.803 22.4945 373.628 23.4564 372.644 24.9323C372.339 24.9323 372.033 24.9323 371.718 24.9323C372.177 23.4044 372.635 21.8765 373.107 20.3023Z" fill="#4978DF"/>
<line x1="107.404" y1="1.99823" x2="107.404" y2="77.9303" stroke="#1A1C1E"/>
<path d="M41.1692 0C46.0195 0 49.982 4.03402 49.982 8.97895C49.982 13.9239 46.0324 17.9579 41.1692 17.9579C36.3061 17.9579 32.3565 13.9239 32.3565 8.97895C32.3565 4.03402 36.319 0 41.1692 0Z" fill="black"/>
<path d="M9.08293 29.0059C9.0572 29.1621 9.04433 29.2662 9.04433 29.3312C9.04433 29.7997 9.30164 30.138 9.81626 30.3723C10.3437 30.5935 11.1414 30.7106 12.2349 30.7106C13.0712 30.7106 13.7145 30.6195 14.1905 30.4373C14.6665 30.2551 14.8981 29.9949 14.8981 29.6696C14.8981 29.1751 13.9589 28.7847 12.1063 28.4724C11.8876 28.4333 11.7203 28.4073 11.6174 28.3943C11.5016 28.3683 11.3215 28.3422 11.0899 28.3032C8.13089 27.8087 6.22682 27.2752 5.3777 26.7026C4.96601 26.4163 4.65724 26.091 4.43853 25.7136C4.23268 25.3362 4.12976 24.9068 4.12976 24.4253C4.12976 23.2542 4.81162 22.3563 6.17535 21.7447C7.53908 21.1331 9.53322 20.8207 12.1449 20.8207C14.7566 20.8207 16.6478 21.107 17.8957 21.6796C19.1437 22.2522 19.7612 23.1371 19.7612 24.3342V24.4774H14.8595V24.4253C14.8595 24.0089 14.615 23.7096 14.1133 23.4884C13.6115 23.2802 12.8911 23.1631 11.9262 23.1631C11.18 23.1631 10.601 23.2412 10.2151 23.3843C9.80339 23.5405 9.61041 23.7487 9.61041 24.0219C9.61041 24.5164 10.6782 24.9459 12.8139 25.2842C13.2256 25.3493 13.5472 25.4013 13.7788 25.4403C15.2969 25.7006 16.3905 25.9218 17.0337 26.104C17.677 26.2862 18.2302 26.5074 18.7062 26.7547C19.2208 27.0409 19.6325 27.4053 19.9156 27.8477C20.1986 28.2902 20.3401 28.7717 20.3401 29.3052C20.3401 30.5154 19.5939 31.4393 18.1144 32.103C16.6349 32.7536 14.4993 33.079 11.7203 33.079C8.94141 33.079 6.97301 32.7666 5.7508 32.142C4.51572 31.5174 3.91105 30.5154 3.91105 29.123V28.9408H9.08293V29.0059ZM22.5144 21.0029H36.4991V23.5665H27.7635V25.4664H35.8301V28.0039H27.7635V30.3072H36.8207V32.9098H22.5144V21.0029ZM39.0207 32.8968V21.0029H45.6592L52.7738 28.9929V21.0029H57.817V32.8968H50.9211L44.0382 24.8808V32.8968H39.0078H39.0207ZM71.3771 28.147L68.8683 23.8267L66.2181 28.147H71.39H71.3771ZM58.1129 32.8968L66.2438 21.0029H72.0718L79.8297 32.8968H73.9888L72.8052 30.7496H64.6614L63.4006 32.8968H58.1129Z" fill="black"/>
<path d="M15.5414 74.8506L10.8455 70.3871L25.1261 45.2851C25.898 43.9188 24.9331 42.201 23.3764 42.201H0V35.9158H37.6184L15.5414 74.8506Z" fill="black"/>
<path d="M66.3854 74.8506L71.0812 70.3871L56.8007 45.2851C56.0287 43.9188 56.9936 42.201 58.5503 42.201H81.9267V35.9158H44.3084L66.3854 74.8506Z" fill="black"/>
<path d="M40.9119 42.5524L40.9633 42.4613L62.1655 77.9607L56.5305 80.9276L42.8674 57.7515C42.0569 56.3852 40.1142 56.3852 39.3166 57.7515C34.7622 65.5333 25.7436 80.9276 25.7436 80.9276L20.2372 78.1689C20.2372 78.1689 39.7797 44.5043 40.9119 42.5524Z" fill="black"/>
</svg>
