<svg width="540" height="113" viewBox="0 0 540 113" fill="none" xmlns="http://www.w3.org/2000/svg">
<path d="M227.398 9.9095C230.835 12.7042 234.042 15.7295 237.207 18.8271C234.076 22.0448 230.811 25.0026 227.342 27.8561C226.652 28.4303 226.652 28.4303 225.947 29.0161C223.506 31.0378 221.036 33.0032 218.48 34.8787C216.056 33.7175 213.853 32.4208 211.625 30.9215C203.404 25.7948 195.319 24.9132 185.82 26.5185C178.305 28.4509 171.841 33.7915 167.65 40.2292C163.406 48.9826 162.453 58.3723 165.532 67.6507C169.73 77.6985 175.41 83.6311 185.528 87.8472C188.715 88.8301 191.874 88.7789 195.183 88.7185C196.246 88.7059 196.246 88.7059 197.33 88.693C203.816 88.5259 208.853 87.8227 213.91 83.5351C217.234 79.6133 217.234 79.6133 219.372 75.0077C209.661 74.7134 199.95 74.4192 189.944 74.116C189.944 67.0533 189.944 59.9905 189.944 52.7138C208.778 52.7138 227.612 52.7138 247.017 52.7138C247.017 70.1537 245.554 84.7955 233.64 98.1934C222.785 108.742 209.021 112.996 194.124 112.852C193.147 112.845 192.169 112.838 191.161 112.831C183.68 112.679 177.269 111.856 170.326 108.894C169.484 108.537 168.643 108.179 167.776 107.811C154.814 101.495 145.886 90.6042 140.741 77.3103C136.427 63.795 135.872 47.1018 141.789 33.9869C142.112 33.2098 142.435 32.4328 142.768 31.6321C147.982 20.1088 156.517 11.7199 167.65 6.0638C168.243 5.76248 168.836 5.46116 169.446 5.15071C186.807 -3.27805 211.646 -1.13316 227.398 9.9095Z" fill="white"/>
<path d="M260.326 2.50317C282.985 2.50317 305.645 2.50317 328.991 2.50317C328.991 9.86017 328.991 17.2172 328.991 24.7971C314.571 24.7971 300.151 24.7971 285.295 24.7971C285.295 31.8598 285.295 38.9225 285.295 46.1992C298.243 46.1992 311.191 46.1992 324.532 46.1992C324.532 53.8505 324.532 61.5018 324.532 69.3849C311.584 69.3849 298.635 69.3849 285.295 69.3849C285.295 76.1533 285.295 82.9218 285.295 89.8953C300.303 89.8953 315.311 89.8953 330.774 89.8953C330.774 97.2523 330.774 104.609 330.774 112.189C307.526 112.189 284.278 112.189 260.326 112.189C260.326 75.9928 260.326 39.7964 260.326 2.50317Z" fill="white"/>
<path d="M340.651 1.88369C349.774 1.88369 358.896 1.88369 368.295 1.88369C370.246 7.65318 370.246 7.65318 372.235 13.5392C373.068 16.002 373.901 18.4648 374.734 20.9276C376.052 24.8211 377.369 28.7147 378.685 32.6088C379.748 35.7546 380.812 38.9 381.877 42.0452C382.279 43.2345 382.681 44.4238 383.083 45.6133C385.178 51.8188 387.298 58.0153 389.479 64.1913C390.023 65.7336 390.023 65.7336 390.578 67.3072C391.26 69.5567 391.26 69.5567 392.373 70.5489C392.69 69.6095 393.008 68.67 393.335 67.7021C400.788 45.6681 408.465 23.7305 416.45 1.88369C425.279 1.88369 434.107 1.88369 443.203 1.88369C438.356 16.5855 433.301 31.1877 428.043 45.747C426.558 49.8698 425.075 53.9932 423.591 58.1166C423.22 59.1477 422.849 60.1787 422.467 61.241C419.919 68.3231 417.394 75.4126 414.883 82.5075C414.55 83.4465 414.218 84.3855 413.875 85.353C412.6 88.9549 411.325 92.5569 410.055 96.1607C409.195 98.5993 408.333 101.037 407.47 103.474C407.089 104.559 407.089 104.559 406.701 105.665C404.959 110.577 404.959 110.577 403.966 111.57C402.117 111.648 400.266 111.665 398.417 111.657C397.293 111.654 396.169 111.651 395.011 111.648C393.816 111.641 392.621 111.633 391.425 111.625C390.226 111.621 389.028 111.617 387.829 111.613C384.885 111.603 381.941 111.588 378.996 111.57C375.269 101.752 371.702 91.8885 368.24 81.9746C367.737 80.5398 367.235 79.105 366.732 77.6704C365.691 74.6992 364.65 71.7279 363.611 68.7563C361.368 62.3487 359.12 55.9432 356.87 49.5382C356.149 47.4862 355.429 45.434 354.709 43.3817C352.34 36.634 349.958 29.8913 347.552 23.157C347.32 22.5078 347.088 21.8587 346.85 21.1899C345.753 18.1166 344.653 15.0443 343.549 11.9739C342.975 10.3675 342.975 10.3675 342.389 8.72862C342.052 7.78981 341.715 6.851 341.367 5.88375C340.651 3.6672 340.651 3.6672 340.651 1.88369Z" fill="white"/>
<path d="M96.3098 1.88369C105.138 1.88369 113.967 1.88369 123.063 1.88369C123.063 38.0801 123.063 74.2765 123.063 111.57C114.234 111.57 105.406 111.57 96.3098 111.57C96.3098 75.3733 96.3098 39.1769 96.3098 1.88369Z" fill="white"/>
<path d="M18.7266 4.5583C33.8194 -2.70766 55.303 -0.789141 68.665 9.01728C74.3261 13.4065 77.9177 19.2153 80.2578 25.9606C80.6992 30.3748 80.6991 30.3752 81.1494 34.8786H53.5059C52.9173 32.8187 52.3281 30.7587 51.7217 28.6364C49.6928 25.6946 47.1059 24.9833 43.6963 24.1774C38.322 23.6706 34.0448 23.7357 29.4277 26.8522C27.3496 29.9695 27.1205 31.2104 27.6445 34.8786C31.2235 38.4646 35.3408 39.8801 40.0176 41.5104C40.764 41.7786 41.5103 42.0476 42.2793 42.3239C46.3835 43.7884 50.5078 45.1834 54.6514 46.5319C65.8034 50.1653 76.3242 55.1306 82.042 66.0895C85.1848 75.61 85.0408 85.0215 80.6826 94.1032C74.9266 104.184 65.3238 109.27 54.3975 112.462C50.1925 113.024 46.093 113.049 41.8564 112.963C40.2834 112.977 40.2828 112.978 38.6777 112.993C27.7587 112.902 18.0215 110.081 9.80957 102.652C3.2834 95.3117 0 87.4683 0 77.6823H26.7529C27.93 80.3308 29.1066 82.9799 30.3193 85.7087C34.2127 89.6021 37.3112 90.425 42.749 90.446C47.9431 90.3502 51.3102 89.541 55.1777 85.9313C56.6447 82.9973 56.5781 80.9183 56.1807 77.6823C53.9507 74.3601 52.0879 72.6177 48.3779 71.1618C47.447 70.7963 46.5158 70.431 45.5566 70.0544C42.6471 68.9979 39.7087 68.0392 36.7637 67.0866L33.9482 66.1716C32.0903 65.5733 30.2288 64.9859 28.3633 64.4118C20.2465 61.8213 12.8219 58.3465 7.13379 51.822C6.50847 51.1599 5.88353 50.4973 5.23926 49.8151C0.097817 42.2743 -0.205523 33.387 1.27832 24.5505C3.85897 15.398 10.7194 9.18412 18.7266 4.5583Z" fill="white"/>
<path d="M477.176 1.79622C478.125 1.79811 478.125 1.79819 479.092 1.80013C481.119 1.80513 483.145 1.81712 485.172 1.82845C486.542 1.83291 487.912 1.83651 489.283 1.84016C492.65 1.85002 496.017 1.86582 499.383 1.88411C502.412 8.98717 505.207 16.1385 507.81 23.4075C508.176 24.4231 508.542 25.4393 508.92 26.4857C509.905 29.2192 510.889 31.9532 511.872 34.6878C513.741 39.8865 515.618 45.0824 517.494 50.2786C517.704 50.8621 517.915 51.446 518.131 52.0472C523.281 66.3147 528.523 80.5483 533.785 94.7747C534.417 96.4878 535.048 98.2013 535.68 99.9144C535.967 100.688 536.255 101.461 536.55 102.257C536.943 103.321 536.943 103.322 537.343 104.408C537.57 105.02 537.796 105.632 538.03 106.263C538.62 108.002 539.067 109.788 539.512 111.57H511.868C510.691 108.094 509.514 104.617 508.301 101.035C507.929 99.9426 507.556 98.8499 507.172 97.724C506.883 96.8616 506.593 95.9991 506.295 95.1107C505.846 93.7867 505.847 93.7865 505.389 92.4359C504.734 90.1676 504.734 90.1676 504.734 87.4925H466.388C465.505 90.7295 464.623 93.967 463.714 97.3021C462.954 99.7287 462.185 102.14 461.373 104.547C461.18 105.133 460.986 105.72 460.787 106.324C459.367 110.564 459.368 110.565 458.363 111.57C456.385 111.648 454.403 111.665 452.423 111.657C451.535 111.655 451.534 111.655 450.628 111.653C448.729 111.648 446.829 111.637 444.93 111.625C443.646 111.621 442.361 111.617 441.076 111.614C437.921 111.604 434.765 111.588 431.61 111.57C433.847 103.673 436.57 95.9525 439.301 88.2171C439.671 87.1677 439.671 87.1673 440.047 86.097C445.138 71.6411 450.349 57.2282 455.577 42.8216C458.388 35.075 461.197 27.328 463.954 19.5618C464.168 18.9586 464.382 18.3552 464.603 17.7337C465.565 15.0235 466.524 12.3119 467.478 9.59895C467.799 8.69219 468.12 7.78515 468.451 6.85091C468.723 6.07633 468.995 5.3013 469.276 4.50325C470.359 1.74673 470.419 1.89973 473.568 1.78255C474.771 1.78269 475.974 1.78728 477.176 1.79622ZM481.819 39.0316C481.481 40.121 481.152 41.1783 480.824 42.2357C478.444 49.8442 476.282 57.4471 474.415 65.1986H495.817C495.817 62.3748 495.162 60.1378 494.321 57.4613C494.1 56.7725 493.886 56.1034 493.672 55.4349C492.992 53.2849 492.311 51.1347 491.626 48.9866C491.149 47.4918 490.673 45.996 490.199 44.5003C488.807 40.1029 487.409 35.7062 486.007 31.3118H484.224C483.42 33.8841 482.618 36.4577 481.819 39.0316Z" fill="white"/>
<path d="M464.605 17.9353C465.194 18.2296 465.782 18.5239 466.389 18.8271C465.945 22.1577 465.608 24.0103 463.713 26.8529C463.125 26.8529 462.536 26.8529 461.93 26.8529C462.813 23.9101 463.695 20.9673 464.605 17.9353Z" fill="white"/>
</svg>
